<svg xmlns="http://www.w3.org/2000/svg" viewBox="0 0 1024 1024" role="presentation">
  <defs>
    <linearGradient id="splat-main" x1="0.18" y1="0.12" x2="0.82" y2="0.92">
      <stop offset="0" stop-color="#7cff00"/>
      <stop offset="0.48" stop-color="#32cd32"/>
      <stop offset="1" stop-color="#22b91d"/>
    </linearGradient>
    <linearGradient id="splat-shadow" x1="0.2" y1="0.1" x2="0.85" y2="0.9">
      <stop offset="0.55" stop-color="#159a15" stop-opacity="0"/>
      <stop offset="1" stop-color="#159a15" stop-opacity="0.86"/>
    </linearGradient>
  </defs>
  <path fill="url(#splat-main)" fill-rule="evenodd" d="M111 483C240 465 280 431 284 365C287 307 224 207 177 138C252 194 338 300 390 308C433 315 436 269 414 205C479 276 505 248 563 151L669 26C640 137 617 274 637 307C660 344 717 321 814 235C758 314 730 361 746 398C765 442 848 449 947 430C873 473 815 509 815 547C815 584 874 648 953 726C841 669 751 634 706 650C660 667 664 730 701 817C619 748 568 720 536 746C505 771 493 862 485 985C445 871 406 782 365 774C323 765 264 830 180 922C245 809 275 732 252 695C229 657 167 669 75 707C155 637 193 584 175 548C157 514 101 507 25 505C57 497 84 489 111 483ZM464 410C433 439 427 484 449 519C471 553 516 566 552 548C588 530 606 487 594 450C582 413 543 389 504 394C489 396 476 401 464 410Z"/>
  <path fill="url(#splat-shadow)" fill-rule="evenodd" opacity="0.78" d="M112 505C241 488 306 449 307 369C322 439 281 503 218 527C190 538 159 541 112 545L58 548C76 531 94 516 112 505ZM386 329C438 337 448 285 424 220C464 265 477 277 500 267C466 329 430 374 389 365C362 359 339 338 317 312C342 323 366 327 386 329ZM643 327C675 369 736 346 805 282C753 361 720 409 746 445C696 432 661 411 642 380C631 361 632 344 643 327ZM815 557C836 609 888 667 938 716C849 673 767 642 713 651C751 625 774 594 773 563C773 546 768 531 758 516C781 532 800 546 815 557ZM698 817C624 756 571 730 537 755C511 775 497 835 487 909C479 836 483 775 514 738C547 697 607 698 649 730C674 750 689 779 698 817ZM365 780C327 778 273 835 209 902C265 802 292 733 270 698C301 715 326 727 350 733C381 740 409 735 437 718C410 762 388 779 365 780Z"/>
  <path fill="none" stroke="#b9ff67" stroke-linecap="round" stroke-width="13" opacity="0.72" d="M184 477C272 458 316 414 309 351M432 308C468 331 505 299 559 210M644 331C682 367 729 344 785 293M759 446C804 471 853 475 903 461"/>
</svg>
